<?xml version="1.0" standalone="no"?>
<!DOCTYPE svg PUBLIC "-//W3C//DTD SVG 20010904//EN"
 "http://www.w3.org/TR/2001/REC-SVG-20010904/DTD/svg10.dtd">
<svg version="1.0" xmlns="http://www.w3.org/2000/svg"
 width="512.000000pt" height="512.000000pt" viewBox="0 0 512.000000 512.000000"
 preserveAspectRatio="xMidYMid meet">
<metadata>
Created by potrace 1.14, written by Peter Selinger 2001-2017
</metadata>
<g transform="translate(0.000000,512.000000) scale(0.100000,-0.100000)"
fill="#000000" stroke="none">
<path d="M2315 5099 c-236 -24 -489 -86 -715 -176 -492 -195 -917 -550 -1206
-1005 -481 -760 -523 -1726 -109 -2526 354 -682 1007 -1177 1750 -1327 207
-42 292 -50 520 -50 228 0 313 8 520 50 923 186 1691 903 1940 1812 220 799
50 1624 -468 2276 -398 502 -975 830 -1637 932 -125 19 -468 28 -595 14z m475
-879 l0 -230 -240 0 -240 0 2 -1377 3 -1378 603 -3 602 -2 0 570 0 570 230 0
230 0 0 -800 0 -800 -1350 0 -1350 0 0 230 0 230 240 0 240 0 0 1380 0 1380
-237 2 -238 3 -3 228 -2 227 755 0 755 0 0 -230z"/>
</g>
</svg>
